0
SECTION
2
HEADER
9
$INSUNITS
70
4
9
$ACADVER
1
AC1014
9
$HANDSEED
5
FFFF
0
ENDSEC
0
SECTION
2
TABLES
0
TABLE
2
VPORT
5
8
100
AcDbSymbolTable
0
ENDTAB
0
TABLE
2
LTYPE
5
5
100
AcDbSymbolTable
0
LTYPE
5
14
100
AcDbSymbolTableRecord
100
AcDbLinetypeTableRecord
2
BYBLOCK
70
0
0
LTYPE
5
15
100
AcDbSymbolTableRecord
100
AcDbLinetypeTableRecord
2
BYLAYER
70
0
0
ENDTAB
0
TABLE
2
LAYER
5
2
100
AcDbSymbolTable
70
2
0
LAYER
5
50
100
AcDbSymbolTableRecord
100
AcDbLayerTableRecord
2
0
70
0
6
CONTINUOUS
0
ENDTAB
0
TABLE
2
STYLE
5
3
100
AcDbSymbolTable
70
1
0
STYLE
5
11
100
AcDbSymbolTableRecord
100
AcDbTextStyleTableRecord
2
STANDARD
70
0
0
ENDTAB
0
TABLE
2
VIEW
5
6
100
AcDbSymbolTable
70
0
0
ENDTAB
0
TABLE
2
UCS
5
7
100
AcDbSymbolTable
70
0
0
ENDTAB
0
TABLE
2
APPID
5
9
100
AcDbSymbolTable
70
2
0
APPID
5
12
100
AcDbSymbolTableRecord
100
AcDbRegAppTableRecord
2
ACAD
70
0
0
ENDTAB
0
TABLE
2
DIMSTYLE
5
A
100
AcDbSymbolTable
70
1
0
ENDTAB
0
TABLE
2
BLOCK_RECORD
5
1
100
AcDbSymbolTable
70
1
0
BLOCK_RECORD
5
1F
100
AcDbSymbolTableRecord
100
AcDbBlockTableRecord
2
*MODEL_SPACE
0
BLOCK_RECORD
5
1B
100
AcDbSymbolTableRecord
100
AcDbBlockTableRecord
2
*PAPER_SPACE
0
ENDTAB
0
ENDSEC
0
SECTION
2
BLOCKS
0
BLOCK
5
20
100
AcDbEntity
100
AcDbBlockBegin
2
*MODEL_SPACE
0
ENDBLK
5
21
100
AcDbEntity
100
AcDbBlockEnd
0
BLOCK
5
1C
100
AcDbEntity
100
AcDbBlockBegin
2
*PAPER_SPACE
0
ENDBLK
5
1D
100
AcDbEntity
100
AcDbBlockEnd
0
ENDSEC
0
SECTION
2
ENTITIES
0
LWPOLYLINE
5
100
100
AcDbEntity
8
0
100
AcDbPolyline
90
8
70
1
43
0.0
10
-49.000000000000021
20
0
10
-24.500000000000014
20
42.435244785437504
10
24.500000000000043
20
42.43524478543749
10
49.000000000000014
20
-2.6645352591003757e-14
10
24.500000000000011
20
-42.435244785437511
10
-24.500000000000011
20
-42.435244785437504
10
-49.000000000000021
20
0
10
49.000000000000014
20
-2.3843110240585875e-14
0
LINE
5
101
100
AcDbEntity
8
0
100
AcDbLine
10
0
20
0
30
0
11
1.1899306966057206e-14
21
42.435244785437504
31
0
0
LINE
5
102
100
AcDbEntity
8
0
100
AcDbLine
10
24.500000000000043
20
43.43524478543749
30
0
11
-24.500000000000014
21
43.435244785437497
31
0
0
LWPOLYLINE
5
103
100
AcDbEntity
8
0
100
AcDbPolyline
90
6
70
1
43
0.0
10
24.500000000000032
20
44.43524478543749
10
49.000000000000028
20
86.870489570874952
10
24.500000000000046
20
129.30573435631246
10
-24.499999999999975
20
129.30573435631243
10
-48.999999999999993
20
86.870489570874966
10
-24.500000000000014
20
44.43524478543749
0
LWPOLYLINE
5
104
100
AcDbEntity
8
0
100
AcDbPolyline
90
6
70
1
43
0.0
10
-50.732050807568868
20
85.87048957087498
10
-99.732050807568896
20
85.870489570874966
10
-124.2320508075689
20
43.43524478543749
10
-99.732050807568925
20
1.0000000000000142
10
-50.732050807568889
20
1.0000000000000142
10
-26.232050807568889
20
43.435244785437476
0
LWPOLYLINE
5
105
100
AcDbEntity
8
0
100
AcDbPolyline
90
6
70
1
43
0.0
10
-50.73205080756891
20
-85.87048957087498
10
-99.732050807568925
20
-85.870489570874966
10
-124.23205080756894
20
-43.435244785437476
10
-99.732050807568925
20
-0.9999999999999698
10
-50.732050807568868
20
-0.99999999999997868
10
-26.232050807568903
20
-43.435244785437497
0
LWPOLYLINE
5
106
100
AcDbEntity
8
0
100
AcDbPolyline
90
6
70
1
43
0.0
10
-125.96410161513779
20
42.435244785437511
10
-174.96410161513779
20
42.43524478543749
10
-199.46410161513782
20
1.7763568394002505e-14
10
-174.96410161513785
20
-42.435244785437462
10
-125.96410161513781
20
-42.435244785437462
10
-101.46410161513782
20
0
0
LWPOLYLINE
5
107
100
AcDbEntity
8
0
100
AcDbPolyline
90
6
70
1
43
0.0
10
-125.96410161513782
20
-129.30573435631246
10
-174.96410161513785
20
-129.30573435631246
10
-199.46410161513785
20
-86.870489570874952
10
-174.96410161513785
20
-44.43524478543744
10
-125.96410161513779
20
-44.435244785437447
10
-101.46410161513782
20
-86.870489570874966
0
LWPOLYLINE
5
108
100
AcDbEntity
8
0
100
AcDbPolyline
90
6
70
1
43
0.0
10
24.500000000000011
20
-44.435244785437519
10
48.999999999999986
20
-86.87048957087498
10
24.499999999999975
20
-129.30573435631248
10
-24.500000000000046
20
-129.30573435631243
10
-49.00000000000005
20
-86.870489570874966
10
-24.500000000000046
20
-44.435244785437504
0
LWPOLYLINE
5
109
100
AcDbEntity
8
0
100
AcDbPolyline
90
6
70
1
43
0.0
10
-125.96410161513774
20
129.30573435631254
10
-174.96410161513779
20
129.30573435631254
10
-199.46410161513782
20
86.870489570875051
10
-174.96410161513782
20
44.435244785437511
10
-125.96410161513774
20
44.43524478543749
10
-101.46410161513778
20
86.870489570874994
0
LWPOLYLINE
5
110
100
AcDbEntity
8
0
100
AcDbPolyline
90
6
70
1
43
0.0
10
50.732050807568889
20
0.99999999999998757
10
26.232050807568914
20
43.435244785437455
10
50.732050807568925
20
85.870489570874952
10
99.732050807568925
20
85.870489570874909
10
124.23205080756894
20
43.435244785437419
10
99.732050807568925
20
0.99999999999995826
0
LWPOLYLINE
5
111
100
AcDbEntity
8
0
100
AcDbPolyline
90
6
70
1
43
0.0
10
174.96410161513782
20
44.435244785437419
10
125.96410161513776
20
44.435244785437419
10
101.46410161513782
20
86.870489570874952
10
125.96410161513781
20
129.30573435631246
10
174.96410161513785
20
129.30573435631243
10
199.46410161513791
20
86.870489570874952
0
LWPOLYLINE
5
112
100
AcDbEntity
8
0
100
AcDbPolyline
90
6
70
1
43
0.0
10
101.46410161513782
20
-5.3290705182007514e-14
10
125.96410161513782
20
42.43524478543744
10
174.96410161513779
20
42.435244785437398
10
199.46410161513782
20
-9.7699626167013776e-14
10
174.96410161513785
20
-42.435244785437554
10
125.96410161513776
20
-42.435244785437533
0
LWPOLYLINE
5
113
100
AcDbEntity
8
0
100
AcDbPolyline
90
6
70
1
43
0.0
10
125.96410161513775
20
-129.30573435631254
10
174.96410161513779
20
-129.30573435631257
10
199.46410161513779
20
-86.870489570875051
10
174.96410161513785
20
-44.43524478543754
10
125.96410161513775
20
-44.435244785437519
10
101.46410161513778
20
-86.870489570875009
0
LWPOLYLINE
5
114
100
AcDbEntity
8
0
100
AcDbPolyline
90
6
70
1
43
0.0
10
50.732050807568868
20
-1.0000000000000053
10
26.232050807568879
20
-43.435244785437519
10
50.732050807568854
20
-85.870489570875023
10
99.732050807568896
20
-85.870489570875023
10
124.2320508075689
20
-43.435244785437547
10
99.732050807568925
20
-1.0000000000000258
0
ENDSEC
0
SECTION
2
OBJECTS
0
DICTIONARY
5
C
100
AcDbDictionary
3
ACAD_GROUP
350
D
3
ACAD_MLINESTYLE
350
17
0
DICTIONARY
5
D
100
AcDbDictionary
0
DICTIONARY
5
1A
330
C
100
AcDbDictionary
0
DICTIONARY
5
17
100
AcDbDictionary
0
ENDSEC
0
EOF
